<svg xmlns="http://www.w3.org/2000/svg" xmlns:xlink="http://www.w3.org/1999/xlink" viewBox="0 0 280.99 26.9"><defs><style>.cls-1{fill:none;clip-rule:evenodd;}.cls-2{clip-path:url(#clip-path);}.cls-3{fill:#14e6dd;}.cls-4{clip-path:url(#clip-path-2);}.cls-5{clip-path:url(#clip-path-3);}.cls-6{clip-path:url(#clip-path-4);}.cls-7{clip-path:url(#clip-path-5);}.cls-8{clip-path:url(#clip-path-6);}.cls-9{clip-path:url(#clip-path-7);}.cls-10{clip-path:url(#clip-path-8);}.cls-11{clip-path:url(#clip-path-9);}.cls-12{clip-path:url(#clip-path-10);}.cls-13{clip-path:url(#clip-path-11);}.cls-14{fill:#fff;}.cls-15{clip-path:url(#clip-path-12);}.cls-16{clip-path:url(#clip-path-13);}.cls-17{clip-path:url(#clip-path-14);}.cls-18{clip-path:url(#clip-path-15);}.cls-19{clip-path:url(#clip-path-16);}.cls-20{clip-path:url(#clip-path-17);}.cls-21{clip-path:url(#clip-path-18);}.cls-22{clip-path:url(#clip-path-19);}.cls-23{clip-path:url(#clip-path-20);}</style><clipPath id="clip-path"><path class="cls-1" d="M158,19.57h-4V5.45h4c4.59,0,7.16,2.87,7.16,7.06s-2.57,7.06-7.16,7.06M157.69,6.8h-2.07V18.22h2.07c3.63,0,5.82-1.9,5.82-5.71s-2.19-5.71-5.82-5.71"/></clipPath><clipPath id="clip-path-2"><path class="cls-1" d="M177.27,6.86h-7.46v4.82h4.63a.48.48,0,0,1,.48.48v.41a.48.48,0,0,1-.48.48h-4.63v5.12h7.46a.48.48,0,0,1,.48.48v.43a.48.48,0,0,1-.48.48H168.2V5.45h9.07a.48.48,0,0,1,.48.48v.45a.48.48,0,0,1-.48.48"/></clipPath><clipPath id="clip-path-3"><path class="cls-1" d="M189.08,5.78a.48.48,0,0,1,.45-.33h.6a.48.48,0,0,1,.45.64l-4.44,13.16a.48.48,0,0,1-.45.33h-1.25a.48.48,0,0,1-.45-.33L179.52,6.09a.48.48,0,0,1,.45-.64h.8a.48.48,0,0,1,.45.33l3.86,11.48Z"/></clipPath><clipPath id="clip-path-4"><path class="cls-1" d="M202.51,6.86h-7.46v4.82h4.63a.48.48,0,0,1,.48.48v.41a.48.48,0,0,1-.48.48h-4.63v5.12h7.46a.48.48,0,0,1,.48.48v.43a.48.48,0,0,1-.48.48h-9.08V5.45h9.08a.48.48,0,0,1,.48.48v.45a.48.48,0,0,1-.48.48"/></clipPath><clipPath id="clip-path-5"><path class="cls-1" d="M205.86,19.57V5.93a.48.48,0,0,1,.48-.48H207a.48.48,0,0,1,.48.48V18.18h5.71a.48.48,0,0,1,.48.48v.43a.48.48,0,0,1-.48.48Z"/></clipPath><clipPath id="clip-path-6"><path class="cls-1" d="M221.87,5.21a7.12,7.12,0,0,1,7.2,7.3,7.21,7.21,0,1,1-14.42,0,7.12,7.12,0,0,1,7.22-7.3m0,1.41a5.56,5.56,0,0,0-5.58,5.89,5.56,5.56,0,0,0,5.58,5.89c3.29,0,5.56-2.54,5.56-5.89s-2.27-5.89-5.56-5.89"/></clipPath><clipPath id="clip-path-7"><path class="cls-1" d="M233.22,19.57h-.66a.48.48,0,0,1-.48-.48V5.45h4.15c3,0,4.69,1.92,4.69,4.3s-1.68,4.36-4.69,4.36H233.7v5A.48.48,0,0,1,233.22,19.57Zm.48-12.73v5.87h2.49a2.86,2.86,0,0,0,3.11-3,2.8,2.8,0,0,0-3.11-2.91Z"/></clipPath><clipPath id="clip-path-8"><path class="cls-1" d="M252.74,6.86h-7.46v4.82h4.63a.48.48,0,0,1,.48.48v.41a.48.48,0,0,1-.48.48h-4.63v5.12h7.46a.48.48,0,0,1,.48.48v.43a.48.48,0,0,1-.48.48h-9.07V5.45h9.07a.48.48,0,0,1,.48.48v.45a.48.48,0,0,1-.48.48"/></clipPath><clipPath id="clip-path-9"><path class="cls-1" d="M260.27,13.4H257.7v5.69a.48.48,0,0,1-.48.48h-.66a.48.48,0,0,1-.48-.48V5.45h4.29c3,0,4.67,1.53,4.67,3.91a3.82,3.82,0,0,1-3.21,3.83l3.46,5.64a.48.48,0,0,1-.4.74h-.69a.48.48,0,0,1-.41-.23Zm0-6.56H257.7V12h2.59c1.85,0,3.13-.91,3.13-2.58S262.15,6.84,260.3,6.84Z"/></clipPath><clipPath id="clip-path-10"><path class="cls-1" d="M275.31,7.49a.47.47,0,0,1-.67.1,4.81,4.81,0,0,0-2.68-1,2.36,2.36,0,0,0-2.61,2.16c0,.91.56,1.63,2,2.36l1.34.69C275,13,276,14.18,276,15.92c0,1.92-1.52,3.89-4.41,3.89a6.07,6.07,0,0,1-4.06-1.47.49.49,0,0,1-.07-.67l.31-.4a.47.47,0,0,1,.69-.06,4.7,4.7,0,0,0,3.16,1.2,2.52,2.52,0,0,0,2.75-2.4c0-1.23-1-2.06-2.67-2.91l-1.14-.56c-1.85-.93-2.83-2.12-2.83-3.75,0-2.26,2-3.59,4.21-3.59a6.38,6.38,0,0,1,3.55,1.19.49.49,0,0,1,.12.69Z"/></clipPath><clipPath id="clip-path-11"><path class="cls-1" d="M39.5,16.06c-1.29,0-1.85-.7-1.85-2V5.86a.39.39,0,0,0-.35-.39H33.8a.39.39,0,0,0-.35.39v9c0,2.77,2.11,5,6,5s6.09-2.23,6.09-5v-9a.39.39,0,0,0-.35-.39H41.7a.39.39,0,0,0-.35.39V14c0,1.33-.57,2-1.85,2"/></clipPath><clipPath id="clip-path-12"><path class="cls-1" d="M66.81,10.39c-.72-.24-.8-.62-.8-.84s.36-.72,1.07-.72a5.06,5.06,0,0,1,3,1,.36.36,0,0,0,.49,0l1.88-2.27a.35.35,0,0,0,0-.49A8.46,8.46,0,0,0,67,5.28c-3.5,0-5.58,2.07-5.58,4.32a4.34,4.34,0,0,0,3.37,4.14l2.15.7c1.05.34,1.22.6,1.22,1s-.42.82-1.26.82a6.31,6.31,0,0,1-3.53-1.43.34.34,0,0,0-.48,0L61,17.34a.36.36,0,0,0,0,.49,9.45,9.45,0,0,0,6.08,2c3.29,0,5.67-1.81,5.67-4.54,0-1.87-1.22-3.34-3.54-4.1l-2.42-.8"/></clipPath><clipPath id="clip-path-13"><path class="cls-1" d="M97.31,16.06c-1.29,0-1.85-.7-1.85-2V5.86a.39.39,0,0,0-.35-.39H91.61a.39.39,0,0,0-.35.39v9c0,2.77,2.11,5,6,5s6.09-2.23,6.09-5v-9a.39.39,0,0,0-.35-.39H99.51a.39.39,0,0,0-.35.39V14c0,1.33-.57,2-1.85,2"/></clipPath><clipPath id="clip-path-14"><path class="cls-1" d="M142.78,14.4a.49.49,0,0,0,.46-.36l.65-3a.29.29,0,0,0-.3-.36h-5.21V9H144a.49.49,0,0,0,.46-.36l.62-2.8a.33.33,0,0,0-.3-.41H134.54a.42.42,0,0,0-.38.41V19.21a.37.37,0,0,0,.38.36h9.24a.49.49,0,0,0,.46-.36l.62-2.8a.29.29,0,0,0-.3-.36h-6.18V14.4h4.4"/></clipPath><clipPath id="clip-path-15"><path class="cls-1" d="M54.26,5.47H47.85a.41.41,0,0,0-.38.41V19.21a.37.37,0,0,0,.38.36h3.47a.37.37,0,0,0,.38-.36V14.9h1.37l2.45,4.36a.71.71,0,0,0,.56.32h4c.21,0,.3-.14.19-.31l-3-4.95a4.26,4.26,0,0,0,2.71-4.14C59.92,7.68,57.82,5.47,54.26,5.47Zm-.38,6H51.69V9h2.19c1.22,0,1.7.52,1.7,1.22S55.1,11.48,53.88,11.48Z"/></clipPath><clipPath id="clip-path-16"><path class="cls-1" d="M126.43,5.47H120a.41.41,0,0,0-.38.41V19.21a.37.37,0,0,0,.38.36h3.46a.37.37,0,0,0,.38-.36V14.9h1.37l2.45,4.36a.71.71,0,0,0,.56.32h4c.21,0,.3-.14.19-.31l-3-4.95a4.26,4.26,0,0,0,2.71-4.14C132.09,7.68,130,5.47,126.43,5.47Zm-.38,6h-2.19V9h2.19c1.22,0,1.7.52,1.7,1.22S127.28,11.48,126.05,11.48Z"/></clipPath><clipPath id="clip-path-17"><path class="cls-1" d="M5.38,19.57H8.81a.42.42,0,0,0,.38-.41V14.88h4.3a.48.48,0,0,0,.46-.35l.65-3a.28.28,0,0,0-.3-.35H9.19V9.08h5.66a.48.48,0,0,0,.46-.35l.62-2.78c0-.2-.09-.48-.3-.48H5.38C5.17,5.47,5,5.76,5,6V19.16a.42.42,0,0,0,.38.41"/></clipPath><clipPath id="clip-path-18"><path class="cls-1" d="M108.35,5.8l-4.24,13.43a.26.26,0,0,0,.25.35h3.78a.51.51,0,0,0,.45-.35l.6-2H113l.65,2a.53.53,0,0,0,.46.35h3.76a.26.26,0,0,0,.25-.35L113.86,5.8a.5.5,0,0,0-.45-.32h-4.6A.5.5,0,0,0,108.35,5.8Zm1.37,7.68,1.37-4.31,1.37,4.31h-2.73Z"/></clipPath><clipPath id="clip-path-19"><path class="cls-1" d="M29.8,17.59a7.5,7.5,0,0,0,1.58-7.76A7.68,7.68,0,0,0,24.72,5a7.92,7.92,0,0,0-7.48,3.75,7.47,7.47,0,0,0,.83,8.52A8.3,8.3,0,0,0,29.8,17.59Zm-3.58-2.43a3.06,3.06,0,0,1-4.63-.39,4.13,4.13,0,0,1,.31-5,3.06,3.06,0,0,1,4.58.26,4.1,4.1,0,0,1-.25,5.13Z"/></clipPath><clipPath id="clip-path-20"><path class="cls-1" d="M87,18l.38-.36A7.5,7.5,0,0,0,89,9.88a7.68,7.68,0,0,0-6.66-4.8,7.92,7.92,0,0,0-7.48,3.75,7.48,7.48,0,0,0,.83,8.52A8.17,8.17,0,0,0,83,19.83h0a9.16,9.16,0,0,0,5.85,2.07L89.7,18a.2.2,0,0,0-.28-.22A4.4,4.4,0,0,1,87,18Zm-7.84-3.18a4.13,4.13,0,0,1,.31-5,3.06,3.06,0,0,1,4.58.26,4.1,4.1,0,0,1-.25,5.13A3.06,3.06,0,0,1,79.21,14.81Z"/></clipPath></defs><title>logo</title><g id="Layer_2" data-name="Layer 2"><g id="Layer_1-2" data-name="Layer 1"><g class="cls-2"><rect class="cls-3" x="149" y="0.45" width="21.13" height="24.12"/></g><g class="cls-4"><rect class="cls-3" x="163.2" y="0.45" width="19.55" height="24.12"/></g><g class="cls-5"><rect class="cls-3" x="174.49" y="0.45" width="21.12" height="24.12"/></g><g class="cls-6"><rect class="cls-3" x="188.44" y="0.45" width="19.55" height="24.12"/></g><g class="cls-7"><rect class="cls-3" x="200.86" y="0.45" width="17.8" height="24.12"/></g><g class="cls-8"><rect class="cls-3" x="209.65" y="0.21" width="24.42" height="24.61"/></g><g class="cls-9"><rect class="cls-3" x="227.08" y="0.45" width="18.83" height="24.12"/></g><g class="cls-10"><rect class="cls-3" x="238.67" y="0.45" width="19.55" height="24.12"/></g><g class="cls-11"><rect class="cls-3" x="251.09" y="0.45" width="19.27" height="24.12"/></g><g class="cls-12"><rect class="cls-3" x="262.35" y="0.21" width="18.63" height="24.61"/></g><g class="cls-13"><rect class="cls-14" x="28.45" y="0.47" width="22.09" height="24.37"/></g><g class="cls-15"><rect class="cls-14" x="55.9" y="0.28" width="21.87" height="24.56"/></g><g class="cls-16"><rect class="cls-14" x="86.26" y="0.47" width="22.09" height="24.37"/></g><g class="cls-17"><rect class="cls-14" x="129.15" y="0.47" width="20.97" height="24.1"/></g><g class="cls-18"><rect class="cls-14" x="42.46" y="0.47" width="22.81" height="24.1"/></g><g class="cls-19"><rect class="cls-14" x="114.64" y="0.47" width="22.81" height="24.1"/></g><g class="cls-20"><rect class="cls-14" y="0.47" width="20.93" height="24.1"/></g><g class="cls-21"><rect class="cls-14" x="99.1" y="0.47" width="24.03" height="24.1"/></g><g class="cls-22"><rect class="cls-14" x="11.28" width="25.57" height="24.87"/></g><g class="cls-23"><rect class="cls-14" x="68.9" y="0.06" width="25.8" height="26.85"/></g></g></g></svg>